<mxfile host="app.diagrams.net" modified="2022-01-07T15:35:40.500Z" agent="5.0 (Windows NT 10.0; Win64; x64) AppleWebKit/537.36 (KHTML, like Gecko) Chrome/96.0.4664.110 Safari/537.36" etag="WzVTM4_9DbWWMoH4Orly" version="16.2.2" type="github">
  <diagram id="dZQq_vhIARZnuwMwOWoh" name="Page-1">
    <mxGraphModel dx="1240" dy="557" grid="1" gridSize="10" guides="1" tooltips="1" connect="1" arrows="1" fold="1" page="1" pageScale="1" pageWidth="827" pageHeight="1169" math="0" shadow="0">
      <root>
        <mxCell id="0" />
        <mxCell id="1" parent="0" />
        <mxCell id="-n7K_DKkgM0FNg-m0orN-98" style="edgeStyle=orthogonalEdgeStyle;rounded=0;orthogonalLoop=1;jettySize=auto;html=1;exitX=1;exitY=0.5;exitDx=0;exitDy=0;entryX=0;entryY=0.5;entryDx=0;entryDy=0;endArrow=classic;endFill=1;" parent="1" source="-n7K_DKkgM0FNg-m0orN-4" target="-n7K_DKkgM0FNg-m0orN-97" edge="1">
          <mxGeometry relative="1" as="geometry" />
        </mxCell>
        <mxCell id="-n7K_DKkgM0FNg-m0orN-4" value="F23 : Transmettre les données" style="rounded=0;whiteSpace=wrap;html=1;" parent="1" vertex="1">
          <mxGeometry x="300" y="350" width="120" height="60" as="geometry" />
        </mxCell>
        <mxCell id="g3-5jpn3iykblGHqPXyI-3" style="edgeStyle=orthogonalEdgeStyle;rounded=0;orthogonalLoop=1;jettySize=auto;html=1;exitX=1;exitY=0.5;exitDx=0;exitDy=0;entryX=0;entryY=0.5;entryDx=0;entryDy=0;" edge="1" parent="1" source="-n7K_DKkgM0FNg-m0orN-97" target="g3-5jpn3iykblGHqPXyI-2">
          <mxGeometry relative="1" as="geometry" />
        </mxCell>
        <mxCell id="-n7K_DKkgM0FNg-m0orN-97" value="Envoyer un message au poste de commandement" style="rounded=0;whiteSpace=wrap;html=1;" parent="1" vertex="1">
          <mxGeometry x="520" y="350" width="120" height="60" as="geometry" />
        </mxCell>
        <mxCell id="g3-5jpn3iykblGHqPXyI-2" value="Opérateur" style="ellipse;whiteSpace=wrap;html=1;" vertex="1" parent="1">
          <mxGeometry x="680" y="340" width="120" height="80" as="geometry" />
        </mxCell>
      </root>
    </mxGraphModel>
  </diagram>
</mxfile>
